<?xml version="1.0" encoding="UTF-8" standalone="no"?>
<!DOCTYPE svg PUBLIC "-//W3C//DTD SVG 1.1//EN"
 "http://www.w3.org/Graphics/SVG/1.1/DTD/svg11.dtd">
<!-- Generated by graphviz version 2.40.1 (20161225.0304)
 -->
<!-- Title: cohort_flow Pages: 1 -->
<svg width="458pt" height="515pt"
 viewBox="0.00 0.00 458.00 515.20" xmlns="http://www.w3.org/2000/svg" xmlns:xlink="http://www.w3.org/1999/xlink">
<g id="graph0" class="graph" transform="scale(1 1) rotate(0) translate(4 511.2)">
<title>cohort_flow</title>
<polygon fill="#ffffff" stroke="transparent" points="-4,4 -4,-511.2 454,-511.2 454,4 -4,4"/>
<!-- A -->
<g id="node1" class="node">
<title>A</title>
<polygon fill="#d3d3d3" stroke="#000000" points="333,-507.0019 117,-507.0019 117,-465.7981 333,-465.7981 333,-507.0019"/>
<text text-anchor="middle" x="225" y="-490.6" font-family="Helvetica,sans-Serif" font-size="14.00" fill="#000000">Initial episodes</text>
<text text-anchor="middle" x="225" y="-473.8" font-family="Helvetica,sans-Serif" font-size="14.00" fill="#000000">(n = 1189041)</text>
</g>
<!-- B -->
<g id="node2" class="node">
<title>B</title>
<polygon fill="#d3d3d3" stroke="#000000" points="333,-429.4019 117,-429.4019 117,-388.1981 333,-388.1981 333,-429.4019"/>
<text text-anchor="middle" x="225" y="-413" font-family="Helvetica,sans-Serif" font-size="14.00" fill="#000000">Aged 19&#45;55</text>
<text text-anchor="middle" x="225" y="-396.2" font-family="Helvetica,sans-Serif" font-size="14.00" fill="#000000">(n = 1142107)</text>
</g>
<!-- A&#45;&gt;B -->
<g id="edge1" class="edge">
<title>A&#45;&gt;B</title>
<path fill="none" stroke="#000000" d="M225,-465.6046C225,-457.6891 225,-448.4891 225,-439.8278"/>
<polygon fill="#000000" stroke="#000000" points="228.5001,-439.6527 225,-429.6528 221.5001,-439.6528 228.5001,-439.6527"/>
</g>
<!-- C -->
<g id="node3" class="node">
<title>C</title>
<polygon fill="#d3d3d3" stroke="#000000" points="333,-351.8019 117,-351.8019 117,-310.5981 333,-310.5981 333,-351.8019"/>
<text text-anchor="middle" x="225" y="-335.4" font-family="Helvetica,sans-Serif" font-size="14.00" fill="#000000">Enrolled at birth</text>
<text text-anchor="middle" x="225" y="-318.6" font-family="Helvetica,sans-Serif" font-size="14.00" fill="#000000">(n = 1138849)</text>
</g>
<!-- B&#45;&gt;C -->
<g id="edge2" class="edge">
<title>B&#45;&gt;C</title>
<path fill="none" stroke="#000000" d="M225,-388.0046C225,-380.0891 225,-370.8891 225,-362.2278"/>
<polygon fill="#000000" stroke="#000000" points="228.5001,-362.0527 225,-352.0528 221.5001,-362.0528 228.5001,-362.0527"/>
</g>
<!-- D -->
<g id="node4" class="node">
<title>D</title>
<polygon fill="#d3d3d3" stroke="#000000" points="333,-274.2019 117,-274.2019 117,-232.9981 333,-232.9981 333,-274.2019"/>
<text text-anchor="middle" x="225" y="-257.8" font-family="Helvetica,sans-Serif" font-size="14.00" fill="#000000">Texas residents</text>
<text text-anchor="middle" x="225" y="-241" font-family="Helvetica,sans-Serif" font-size="14.00" fill="#000000">(n = 1133442)</text>
</g>
<!-- C&#45;&gt;D -->
<g id="edge3" class="edge">
<title>C&#45;&gt;D</title>
<path fill="none" stroke="#000000" d="M225,-310.4046C225,-302.4891 225,-293.2891 225,-284.6278"/>
<polygon fill="#000000" stroke="#000000" points="228.5001,-284.4527 225,-274.4528 221.5001,-284.4528 228.5001,-284.4527"/>
</g>
<!-- E -->
<g id="node5" class="node">
<title>E</title>
<polygon fill="#d3d3d3" stroke="#000000" points="333,-196.6019 117,-196.6019 117,-155.3981 333,-155.3981 333,-196.6019"/>
<text text-anchor="middle" x="225" y="-180.2" font-family="Helvetica,sans-Serif" font-size="14.00" fill="#000000">LOS &lt;= 60 days</text>
<text text-anchor="middle" x="225" y="-163.4" font-family="Helvetica,sans-Serif" font-size="14.00" fill="#000000">(n = 1133099)</text>
</g>
<!-- D&#45;&gt;E -->
<g id="edge4" class="edge">
<title>D&#45;&gt;E</title>
<path fill="none" stroke="#000000" d="M225,-232.8046C225,-224.8891 225,-215.6891 225,-207.0278"/>
<polygon fill="#000000" stroke="#000000" points="228.5001,-206.8527 225,-196.8528 221.5001,-206.8528 228.5001,-206.8527"/>
</g>
<!-- F -->
<g id="node6" class="node">
<title>F</title>
<polygon fill="#d3d3d3" stroke="#000000" points="333,-119.0019 117,-119.0019 117,-77.7981 333,-77.7981 333,-119.0019"/>
<text text-anchor="middle" x="225" y="-102.6" font-family="Helvetica,sans-Serif" font-size="14.00" fill="#000000">Enrollment filters</text>
<text text-anchor="middle" x="225" y="-85.8" font-family="Helvetica,sans-Serif" font-size="14.00" fill="#000000">(n = 865079)</text>
</g>
<!-- E&#45;&gt;F -->
<g id="edge5" class="edge">
<title>E&#45;&gt;F</title>
<path fill="none" stroke="#000000" d="M225,-155.2046C225,-147.2891 225,-138.0891 225,-129.4278"/>
<polygon fill="#000000" stroke="#000000" points="228.5001,-129.2527 225,-119.2528 221.5001,-129.2528 228.5001,-129.2527"/>
</g>
<!-- G -->
<g id="node7" class="node">
<title>G</title>
<polygon fill="#d3d3d3" stroke="#000000" points="216,-41.4019 0,-41.4019 0,-.1981 216,-.1981 216,-41.4019"/>
<text text-anchor="middle" x="108" y="-25" font-family="Helvetica,sans-Serif" font-size="14.00" fill="#000000">Diabetes sample</text>
<text text-anchor="middle" x="108" y="-8.2" font-family="Helvetica,sans-Serif" font-size="14.00" fill="#000000">(n = 107816)</text>
</g>
<!-- F&#45;&gt;G -->
<g id="edge6" class="edge">
<title>F&#45;&gt;G</title>
<path fill="none" stroke="#000000" d="M193.6461,-77.6046C179.6134,-68.2974 162.9028,-57.2142 147.9837,-47.3191"/>
<polygon fill="#000000" stroke="#000000" points="149.7086,-44.2633 139.4404,-41.6528 145.8395,-50.0969 149.7086,-44.2633"/>
</g>
<!-- H -->
<g id="node8" class="node">
<title>H</title>
<polygon fill="#d3d3d3" stroke="#000000" points="450,-41.4019 234,-41.4019 234,-.1981 450,-.1981 450,-41.4019"/>
<text text-anchor="middle" x="342" y="-25" font-family="Helvetica,sans-Serif" font-size="14.00" fill="#000000">Hypertension sample</text>
<text text-anchor="middle" x="342" y="-8.2" font-family="Helvetica,sans-Serif" font-size="14.00" fill="#000000">(n = 156524)</text>
</g>
<!-- F&#45;&gt;H -->
<g id="edge7" class="edge">
<title>F&#45;&gt;H</title>
<path fill="none" stroke="#000000" d="M256.3539,-77.6046C270.3866,-68.2974 287.0972,-57.2142 302.0163,-47.3191"/>
<polygon fill="#000000" stroke="#000000" points="304.1605,-50.0969 310.5596,-41.6528 300.2914,-44.2633 304.1605,-50.0969"/>
</g>
</g>
</svg>

